<svg viewBox="0 0 1080 1080" version="1.1" xmlns="http://www.w3.org/2000/svg" xmlns:xlink="http://www.w3.org/1999/xlink" xml:space="preserve" xmlns:serif="http://www.serif.com/" style="fill-rule:evenodd;clip-rule:evenodd;stroke-linejoin:round;stroke-miterlimit:2;">
    <g transform="matrix(1.33093,0,0,1.33093,-200.495,332.95)">
        <g transform="matrix(1,0,0,1,-5.68434e-14,-39.6758)">
            <path d="M264.361,177.22C266.742,177.22 269.122,174.839 269.122,172.458L269.122,145.592C269.122,142.872 271.163,140.491 273.883,140.491L318.774,140.491C321.494,140.491 323.535,138.451 323.535,135.73L323.535,108.864C323.535,106.143 321.494,104.103 318.774,104.103L255.519,104.103C252.798,104.103 250.758,106.143 250.758,108.864L250.758,140.491L200.766,140.491C198.046,140.491 196.005,142.872 196.005,145.252L196.005,177.22L173.9,177.22C171.18,177.22 169.139,179.26 169.139,181.641L169.139,208.847C169.139,211.227 171.18,213.608 173.9,213.608L196.005,213.608L196.005,245.235C196.005,247.956 198.046,249.996 200.766,249.996L250.758,249.996L250.758,281.624C250.758,284.344 252.798,286.385 255.519,286.385L318.774,286.385C321.494,286.385 323.535,284.004 323.535,281.624L323.535,254.417C323.535,252.037 321.494,249.656 318.774,249.656L273.883,249.996C271.163,249.996 269.122,247.616 269.122,244.895L269.122,218.369C269.122,215.648 266.742,213.608 264.361,213.608L219.131,213.608C216.41,213.608 214.369,211.227 214.369,208.507L214.369,181.981C214.369,179.26 216.41,177.22 219.131,177.22L264.361,177.22Z" style="fill-rule:nonzero;"/>
            <path d="M893.62,177.22C896.341,177.22 898.721,179.26 898.721,181.981L898.721,208.507C898.721,211.227 896.341,213.608 893.62,213.608L848.73,213.608C846.009,213.608 843.968,215.648 843.968,218.369L843.968,244.895C843.968,247.616 841.588,249.996 838.867,249.996L793.977,249.656C791.256,249.656 789.216,252.037 789.216,254.417L789.216,281.624C789.216,284.004 791.256,286.385 793.977,286.385L857.232,286.385C859.952,286.385 861.993,284.344 861.993,281.624L861.993,249.996L911.984,249.996C914.705,249.996 916.745,247.956 916.745,245.235L916.745,213.608L938.85,213.608C941.571,213.608 943.611,211.227 943.611,208.847L943.611,181.641C943.611,179.26 941.571,177.22 938.85,177.22L916.745,177.22L916.745,145.252C916.745,142.872 914.705,140.491 911.984,140.491L861.993,140.491L861.993,108.864C861.993,106.143 859.952,104.103 857.232,104.103L793.977,104.103C791.256,104.103 789.216,106.143 789.216,108.864L789.216,135.73C789.216,138.451 791.256,140.491 793.977,140.491L838.867,140.491C841.588,140.491 843.968,142.872 843.968,145.592L843.968,172.458C843.968,174.839 846.009,177.22 848.73,177.22L893.62,177.22Z" style="fill-rule:nonzero;"/>
        </g>
        <g>
            <path d="M513.979,66.921L426.919,66.921L426.919,7.974C426.919,0.265 420.571,-6.083 412.862,-6.083L359.81,-6.083C352.101,-6.083 345.753,0.265 345.753,7.974L345.753,303.162C345.753,310.87 352.101,317.219 359.81,317.219L412.862,317.219C420.571,317.219 426.919,310.87 426.919,303.162L426.919,106.823C426.919,103.196 430.093,100.475 433.72,100.475L447.777,100.475C451.404,100.475 454.125,103.196 454.125,106.823L454.125,121.787C454.125,124.507 456.392,126.775 459.113,126.775L474.53,126.775C478.157,126.775 481.331,129.495 481.331,133.123L481.331,303.162C481.331,310.87 487.679,317.219 495.388,317.219L548.44,317.219C556.149,317.219 562.497,310.87 562.497,303.162L562.497,115.439C562.497,107.277 555.695,100.475 547.533,100.475L528.942,100.475L528.942,81.884C528.942,73.722 522.141,66.921 513.979,66.921Z" style="fill:rgb(236,120,184);fill-rule:nonzero;"/>
            <path d="M755.208,126.775C761.556,126.775 766.997,121.333 766.997,114.985L766.997,78.71C766.997,72.362 761.556,66.921 755.208,66.921L708.504,66.921L708.504,0.719C708.504,-2.909 705.33,-6.083 701.702,-6.083L667.241,-6.083C663.613,-6.083 660.893,-3.362 660.893,0.265L660.893,23.844C660.893,25.658 659.079,27.018 657.265,27.018L633.686,27.018C630.059,27.018 627.338,30.192 627.338,33.82L627.338,66.921L599.679,66.921C593.33,66.921 587.889,72.362 587.889,78.71L587.889,114.985C587.889,121.333 593.33,126.775 599.679,126.775L627.338,126.775L626.885,272.328C626.885,278.676 632.326,283.664 638.674,283.664L660.439,283.664L660.439,305.883C660.439,312.231 665.427,317.219 672.229,317.219L754.301,317.219C761.103,317.219 766.997,311.777 766.997,304.976L766.997,270.061C766.997,263.259 761.103,257.818 754.301,257.818L715.305,257.818C711.678,257.818 708.504,254.644 708.504,251.017L708.504,126.775L755.208,126.775Z" style="fill:rgb(236,120,184);fill-rule:nonzero;"/>
        </g>
    </g>
</svg>
