<svg viewBox="0 0 400 240" version="1.1" xmlns="http://www.w3.org/2000/svg" xmlns:xlink="http://www.w3.org/1999/xlink" xml:space="preserve" xmlns:serif="http://www.serif.com/" style="fill-rule:evenodd;clip-rule:evenodd;">
    <g transform="matrix(1,0,0,1,-50,-130)">
        <g transform="matrix(1,0,0,1,6.82872,47.2889)">
            <path d="M298.276,91.24L302.745,91.24L302.745,100.151L307.188,100.151L307.188,117.953L311.635,117.953L311.635,126.844L316.078,126.844L316.078,135.755L320.521,135.755L320.521,140.198L324.964,140.198L324.964,144.641L333.932,144.641L333.932,149.089L342.849,149.089L342.849,153.531L351.766,153.531L351.766,157.974L369.536,157.974L369.536,162.417L360.625,162.417L360.625,166.859L347.266,166.859L347.266,171.307L333.932,171.307L333.932,175.75L329.49,175.75L329.49,180.193L320.578,180.193L320.578,189.104L316.13,189.104L316.13,193.635L311.688,193.635L311.688,206.99L307.245,206.99L307.245,220.349L302.802,220.349L302.802,229.24L298.359,229.24L298.359,211.438L293.911,211.438L293.911,199.182L289.469,199.182L289.469,193.635L285.026,193.635L285.026,184.719L280.583,184.719L280.583,180.276L276.141,180.276L276.141,175.833L267.141,175.833L267.141,171.385L258.255,171.385L258.255,166.943L240.453,166.943L240.453,162.5L231.536,162.5L231.536,158.057L249.339,158.057L249.339,153.615L262.698,153.615L262.698,149.172L271.615,149.172L271.615,144.724L276.057,144.724L276.057,140.281L280.5,140.281L280.5,135.839L284.943,135.839L284.943,131.396L289.385,131.396L289.385,122.479L293.833,122.479L293.833,109.042L298.276,109.042L298.276,91.24Z" style="fill-rule:nonzero;"/>
        </g>
    </g>
    <g transform="matrix(0.674667,0,0,0.674667,6.50644,105.219)">
        <path d="M-0.001,67.999L-0.001,11.999L16.002,11.999L16.002,36L40.003,36L40.003,11.999L55.999,11.999L55.999,67.999L40.003,67.999L40.003,43.998L16.002,43.998L16.002,67.999L-0.001,67.999ZM87.998,67.999L87.998,43.998L80,43.998L80,36L72.002,36L72.002,11.999L87.998,11.999L87.998,36L104.001,36L104.001,11.999L119.997,11.999L119.997,36L111.999,36L111.999,43.998L104.001,43.998L104.001,67.999L87.998,67.999ZM128.002,67.999L128.002,11.999L175.996,11.999L175.996,19.997L184.002,19.997L184.002,43.998L175.996,43.998L175.996,52.003L143.998,52.003L143.998,67.999L128.002,67.999ZM143.998,43.998L167.999,43.998L167.999,19.997L143.998,19.997L143.998,43.998ZM192,67.999L192,11.999L248,11.999L248,19.997L208.003,19.997L208.003,36L240.002,36L240.002,43.998L208.003,43.998L208.003,60.001L248,60.001L248,67.999L192,67.999ZM255.997,67.999L255.997,11.999L303.999,11.999L303.999,19.997L311.997,19.997L311.997,43.998L296.002,43.998L296.002,52.003L303.999,52.003L303.999,60.001L311.997,60.001L311.997,67.999L288.004,67.999L288.004,60.001L279.998,60.001L279.998,52.003L272.001,52.003L272.001,67.999L255.997,67.999ZM272.001,43.998L288.004,43.998L288.004,36L296.002,36L296.002,19.997L272.001,19.997L272.001,43.998Z" style="fill:none;fill-rule:nonzero;stroke:rgb(36,36,36);stroke-width:12.8px;"/>
    </g>
    <g transform="matrix(0.674667,0,0,0.674667,6.50644,105.219)">
        <path d="M24,157.333L24,109.331L7.997,109.331L7.997,101.333L55.999,101.333L55.999,109.331L40.003,109.331L40.003,157.333L24,157.333ZM63.997,157.333L63.997,101.333L119.997,101.333L119.997,109.331L80,109.331L80,125.334L111.999,125.334L111.999,133.332L80,133.332L80,149.335L119.997,149.335L119.997,157.333L63.997,157.333ZM128.002,157.333L128.002,101.333L143.998,101.333L143.998,109.331L152.003,109.331L152.003,117.337L160.001,117.337L160.001,109.331L167.999,109.331L167.999,101.333L184.002,101.333L184.002,157.333L167.999,157.333L167.999,125.334L160.001,125.334L160.001,141.33L152.003,141.33L152.003,125.334L143.998,125.334L143.998,157.333L128.002,157.333ZM192,157.333L192,101.333L240.002,101.333L240.002,109.331L248,109.331L248,133.332L240.002,133.332L240.002,141.33L208.003,141.33L208.003,157.333L192,157.333ZM208.003,133.332L232.004,133.332L232.004,109.331L208.003,109.331L208.003,133.332ZM264.003,157.333L264.003,101.333L279.998,101.333L279.998,149.335L311.997,149.335L311.997,157.333L264.003,157.333ZM320.003,157.333L320.003,117.337L328,117.337L328,109.331L335.998,109.331L335.998,101.333L359.999,101.333L359.999,109.331L367.997,109.331L367.997,117.337L376.002,117.337L376.002,157.333L359.999,157.333L359.999,141.33L335.998,141.33L335.998,157.333L320.003,157.333ZM335.998,133.332L359.999,133.332L359.999,117.337L352.001,117.337L352.001,109.331L344.004,109.331L344.004,117.337L335.998,117.337L335.998,133.332ZM408.001,157.333L408.001,109.331L391.998,109.331L391.998,101.333L440,101.333L440,109.331L424.005,109.331L424.005,157.333L408.001,157.333ZM447.998,157.333L447.998,101.333L503.998,101.333L503.998,109.331L464.001,109.331L464.001,125.334L496,125.334L496,133.332L464.001,133.332L464.001,149.335L503.998,149.335L503.998,157.333L447.998,157.333ZM520.001,157.333L520.001,149.335L512.003,149.335L512.003,141.33L527.999,141.33L527.999,149.335L552,149.335L552,133.332L520.001,133.332L520.001,125.334L512.003,125.334L512.003,109.331L520.001,109.331L520.001,101.333L559.998,101.333L559.998,109.331L568.003,109.331L568.003,117.337L552,117.337L552,109.331L527.999,109.331L527.999,125.334L559.998,125.334L559.998,133.332L568.003,133.332L568.003,149.335L559.998,149.335L559.998,157.333L520.001,157.333Z" style="fill:none;fill-rule:nonzero;stroke:rgb(36,36,36);stroke-width:12.8px;"/>
    </g>
    <g transform="matrix(1,0,0,1,6.50644,156.494)">
        <g>
            <g>
                <g>
                    <path d="M0,-5.396L0,-43.187L10.792,-43.187L10.792,-27L27,-27L27,-43.187L37.792,-43.187L37.792,-5.396L27,-5.396L27,-21.583L10.792,-21.583L10.792,-5.396L0,-5.396Z" style="fill:rgb(36,36,36);fill-rule:nonzero;"/>
                </g>
            </g>
        </g>
    </g>
    <g transform="matrix(1,0,0,1,49.6852,156.494)">
        <g>
            <g>
                <g>
                    <path d="M16.188,-5.396L16.188,-21.583L10.792,-21.583L10.792,-27L5.396,-27L5.396,-43.187L16.188,-43.187L16.188,-27L27,-27L27,-43.187L37.792,-43.187L37.792,-27L32.396,-27L32.396,-21.583L27,-21.583L27,-5.396L16.188,-5.396Z" style="fill:rgb(36,36,36);fill-rule:nonzero;"/>
                </g>
            </g>
        </g>
    </g>
    <g transform="matrix(1,0,0,1,92.864,156.494)">
        <g>
            <g>
                <g>
                    <path d="M0,-5.396L0,-43.187L32.396,-43.187L32.396,-37.792L37.792,-37.792L37.792,-21.583L32.396,-21.583L32.396,-16.187L10.792,-16.187L10.792,-5.396L0,-5.396ZM10.792,-21.583L27,-21.583L27,-37.792L10.792,-37.792L10.792,-21.583Z" style="fill:rgb(36,36,36);fill-rule:nonzero;"/>
                </g>
            </g>
        </g>
    </g>
    <g transform="matrix(1,0,0,1,136.043,156.494)">
        <g>
            <g>
                <g>
                    <path d="M0,-5.396L0,-43.187L37.792,-43.187L37.792,-37.792L10.792,-37.792L10.792,-27L32.396,-27L32.396,-21.583L10.792,-21.583L10.792,-10.792L37.792,-10.792L37.792,-5.396L0,-5.396Z" style="fill:rgb(36,36,36);fill-rule:nonzero;"/>
                </g>
            </g>
        </g>
    </g>
    <g transform="matrix(1,0,0,1,179.222,156.494)">
        <g>
            <g>
                <g>
                    <path d="M0,-5.396L0,-43.187L32.396,-43.187L32.396,-37.792L37.792,-37.792L37.792,-21.583L27,-21.583L27,-16.187L32.396,-16.187L32.396,-10.792L37.792,-10.792L37.792,-5.396L21.583,-5.396L21.583,-10.792L16.188,-10.792L16.188,-16.187L10.792,-16.187L10.792,-5.396L0,-5.396ZM10.792,-21.583L21.583,-21.583L21.583,-27L27,-27L27,-37.792L10.792,-37.792L10.792,-21.583Z" style="fill:rgb(36,36,36);fill-rule:nonzero;"/>
                </g>
            </g>
        </g>
    </g>
    <g transform="matrix(1,0,0,1,6.50644,216.764)">
        <g>
            <g>
                <g>
                    <path d="M16.188,-5.396L16.188,-37.792L5.396,-37.792L5.396,-43.187L37.792,-43.187L37.792,-37.792L27,-37.792L27,-5.396L16.188,-5.396Z" style="fill:rgb(36,36,36);fill-rule:nonzero;"/>
                </g>
            </g>
        </g>
    </g>
    <g transform="matrix(1,0,0,1,49.6852,216.764)">
        <g>
            <g>
                <g>
                    <path d="M0,-5.396L0,-43.187L37.792,-43.187L37.792,-37.792L10.792,-37.792L10.792,-27L32.396,-27L32.396,-21.583L10.792,-21.583L10.792,-10.792L37.792,-10.792L37.792,-5.396L0,-5.396Z" style="fill:rgb(36,36,36);fill-rule:nonzero;"/>
                </g>
            </g>
        </g>
    </g>
    <g transform="matrix(1,0,0,1,92.864,216.764)">
        <g>
            <g>
                <g>
                    <path d="M0,-5.396L0,-43.187L10.792,-43.187L10.792,-37.792L16.188,-37.792L16.188,-32.396L21.583,-32.396L21.583,-37.792L27,-37.792L27,-43.187L37.792,-43.187L37.792,-5.396L27,-5.396L27,-27L21.583,-27L21.583,-16.187L16.188,-16.187L16.188,-27L10.792,-27L10.792,-5.396L0,-5.396Z" style="fill:rgb(36,36,36);fill-rule:nonzero;"/>
                </g>
            </g>
        </g>
    </g>
    <g transform="matrix(1,0,0,1,136.043,216.764)">
        <g>
            <g>
                <g>
                    <path d="M0,-5.396L0,-43.187L32.396,-43.187L32.396,-37.792L37.792,-37.792L37.792,-21.583L32.396,-21.583L32.396,-16.187L10.792,-16.187L10.792,-5.396L0,-5.396ZM10.792,-21.583L27,-21.583L27,-37.792L10.792,-37.792L10.792,-21.583Z" style="fill:rgb(36,36,36);fill-rule:nonzero;"/>
                </g>
            </g>
        </g>
    </g>
    <g transform="matrix(1,0,0,1,179.222,216.764)">
        <g>
            <g>
                <g>
                    <path d="M5.396,-5.396L5.396,-43.187L16.188,-43.187L16.188,-10.792L37.792,-10.792L37.792,-5.396L5.396,-5.396Z" style="fill:rgb(36,36,36);fill-rule:nonzero;"/>
                </g>
            </g>
        </g>
    </g>
    <g transform="matrix(1,0,0,1,222.4,216.764)">
        <g>
            <g>
                <g>
                    <path d="M0,-5.396L0,-32.396L5.396,-32.396L5.396,-37.792L10.792,-37.792L10.792,-43.187L27,-43.187L27,-37.792L32.396,-37.792L32.396,-32.396L37.792,-32.396L37.792,-5.396L27,-5.396L27,-16.187L10.792,-16.187L10.792,-5.396L0,-5.396ZM10.792,-21.583L27,-21.583L27,-32.396L21.583,-32.396L21.583,-37.792L16.188,-37.792L16.188,-32.396L10.792,-32.396L10.792,-21.583Z" style="fill:rgb(36,36,36);fill-rule:nonzero;"/>
                </g>
            </g>
        </g>
    </g>
    <g transform="matrix(1,0,0,1,265.579,216.764)">
        <g>
            <g>
                <g>
                    <path d="M16.188,-5.396L16.188,-37.792L5.396,-37.792L5.396,-43.187L37.792,-43.187L37.792,-37.792L27,-37.792L27,-5.396L16.188,-5.396Z" style="fill:rgb(36,36,36);fill-rule:nonzero;"/>
                </g>
            </g>
        </g>
    </g>
    <g transform="matrix(1,0,0,1,308.758,216.764)">
        <g>
            <g>
                <g>
                    <path d="M0,-5.396L0,-43.187L37.792,-43.187L37.792,-37.792L10.792,-37.792L10.792,-27L32.396,-27L32.396,-21.583L10.792,-21.583L10.792,-10.792L37.792,-10.792L37.792,-5.396L0,-5.396Z" style="fill:rgb(36,36,36);fill-rule:nonzero;"/>
                </g>
            </g>
        </g>
    </g>
    <g transform="matrix(1,0,0,1,351.937,216.764)">
        <g>
            <g>
                <g>
                    <path d="M5.396,-5.396L5.396,-10.792L0,-10.792L0,-16.187L10.792,-16.187L10.792,-10.792L27,-10.792L27,-21.583L5.396,-21.583L5.396,-27L0,-27L0,-37.792L5.396,-37.792L5.396,-43.187L32.396,-43.187L32.396,-37.792L37.792,-37.792L37.792,-32.396L27,-32.396L27,-37.792L10.792,-37.792L10.792,-27L32.396,-27L32.396,-21.583L37.792,-21.583L37.792,-10.792L32.396,-10.792L32.396,-5.396L5.396,-5.396Z" style="fill:rgb(36,36,36);fill-rule:nonzero;"/>
                </g>
            </g>
        </g>
    </g>
    <g transform="matrix(0.674667,0,0,0.674667,9.89439,108.822)">
        <path d="M0.003,67.993L0.003,11.932L16.014,11.932L16.014,35.956L40.038,35.956L40.038,11.932L56.057,11.932L56.057,67.993L40.038,67.993L40.038,43.969L16.014,43.969L16.014,67.993L0.003,67.993ZM88.087,67.993L88.087,43.969L80.081,43.969L80.081,35.956L72.068,35.956L72.068,11.932L88.087,11.932L88.087,35.956L104.105,35.956L104.105,11.932L120.124,11.932L120.124,35.956L112.111,35.956L112.111,43.969L104.105,43.969L104.105,67.993L88.087,67.993ZM128.122,67.993L128.122,11.932L176.178,11.932L176.178,19.945L184.183,19.945L184.183,43.969L176.178,43.969L176.178,51.975L144.14,51.975L144.14,67.993L128.122,67.993ZM144.14,43.969L168.165,43.969L168.165,19.945L144.14,19.945L144.14,43.969ZM192.189,67.993L192.189,11.932L248.243,11.932L248.243,19.945L208.208,19.945L208.208,35.956L240.237,35.956L240.237,43.969L208.208,43.969L208.208,59.98L248.243,59.98L248.243,67.993L192.189,67.993ZM256.248,67.993L256.248,11.932L304.297,11.932L304.297,19.945L312.31,19.945L312.31,43.969L296.291,43.969L296.291,51.975L304.297,51.975L304.297,59.98L312.31,59.98L312.31,67.993L288.286,67.993L288.286,59.98L280.272,59.98L280.272,51.975L272.267,51.975L272.267,67.993L256.248,67.993ZM272.267,43.969L288.286,43.969L288.286,35.956L296.291,35.956L296.291,19.945L272.267,19.945L272.267,43.969Z" style="fill:none;fill-rule:nonzero;stroke:rgb(36,36,36);stroke-width:12.81px;"/>
    </g>
    <g transform="matrix(0.674667,0,0,0.674667,9.89439,108.822)">
        <path d="M24.027,157.327L24.027,109.271L8.009,109.271L8.009,101.266L56.057,101.266L56.057,109.271L40.038,109.271L40.038,157.327L24.027,157.327ZM64.062,157.327L64.062,101.266L120.124,101.266L120.124,109.271L80.081,109.271L80.081,125.29L112.111,125.29L112.111,133.303L80.081,133.303L80.081,149.314L120.124,149.314L120.124,157.327L64.062,157.327ZM128.122,157.327L128.122,101.266L144.14,101.266L144.14,109.271L152.154,109.271L152.154,117.285L160.159,117.285L160.159,109.271L168.165,109.271L168.165,101.266L184.183,101.266L184.183,157.327L168.165,157.327L168.165,125.29L160.159,125.29L160.159,141.309L152.154,141.309L152.154,125.29L144.14,125.29L144.14,157.327L128.122,157.327ZM192.189,157.327L192.189,101.266L240.237,101.266L240.237,109.271L248.243,109.271L248.243,133.303L240.237,133.303L240.237,141.309L208.208,141.309L208.208,157.327L192.189,157.327ZM208.208,133.303L232.232,133.303L232.232,109.271L208.208,109.271L208.208,133.303ZM264.261,157.327L264.261,101.266L280.272,101.266L280.272,149.314L312.31,149.314L312.31,157.327L264.261,157.327ZM320.315,157.327L320.315,117.285L328.321,117.285L328.321,109.271L336.326,109.271L336.326,101.266L360.351,101.266L360.351,109.271L368.364,109.271L368.364,117.285L376.369,117.285L376.369,157.327L360.351,157.327L360.351,141.309L336.326,141.309L336.326,157.327L320.315,157.327ZM336.326,133.303L360.351,133.303L360.351,117.285L352.345,117.285L352.345,109.271L344.34,109.271L344.34,117.285L336.326,117.285L336.326,133.303ZM408.399,157.327L408.399,109.271L392.38,109.271L392.38,101.266L440.436,101.266L440.436,109.271L424.418,109.271L424.418,157.327L408.399,157.327ZM448.434,157.327L448.434,101.266L504.496,101.266L504.496,109.271L464.453,109.271L464.453,125.29L496.49,125.29L496.49,133.303L464.453,133.303L464.453,149.314L504.496,149.314L504.496,157.327L448.434,157.327ZM520.507,157.327L520.507,149.314L512.501,149.314L512.501,141.309L528.52,141.309L528.52,149.314L552.544,149.314L552.544,133.303L520.507,133.303L520.507,125.29L512.501,125.29L512.501,109.271L520.507,109.271L520.507,101.266L560.55,101.266L560.55,109.271L568.555,109.271L568.555,117.285L552.544,117.285L552.544,109.271L528.52,109.271L528.52,125.29L560.55,125.29L560.55,133.303L568.555,133.303L568.555,149.314L560.55,149.314L560.55,157.327L520.507,157.327Z" style="fill:none;fill-rule:nonzero;stroke:rgb(36,36,36);stroke-width:12.81px;"/>
    </g>
    <g transform="matrix(1,0,0,1,9.89439,160.097)">
        <g>
            <g>
                <g>
                    <path d="M0,-5.396L0,-43.229L10.813,-43.229L10.813,-27.021L27.021,-27.021L27.021,-43.229L37.833,-43.229L37.833,-5.396L27.021,-5.396L27.021,-21.604L10.813,-21.604L10.813,-5.396L0,-5.396Z" style="fill:rgb(236,120,184);fill-rule:nonzero;"/>
                </g>
            </g>
        </g>
    </g>
    <g transform="matrix(1,0,0,1,53.1152,160.097)">
        <g>
            <g>
                <g>
                    <path d="M16.208,-5.396L16.208,-21.604L10.813,-21.604L10.813,-27.021L5.396,-27.021L5.396,-43.229L16.208,-43.229L16.208,-27.021L27.021,-27.021L27.021,-43.229L37.833,-43.229L37.833,-27.021L32.417,-27.021L32.417,-21.604L27.021,-21.604L27.021,-5.396L16.208,-5.396Z" style="fill:rgb(236,120,184);fill-rule:nonzero;"/>
                </g>
            </g>
        </g>
    </g>
    <g transform="matrix(1,0,0,1,96.336,160.097)">
        <g>
            <g>
                <g>
                    <path d="M0,-5.396L0,-43.229L32.417,-43.229L32.417,-37.833L37.833,-37.833L37.833,-21.604L32.417,-21.604L32.417,-16.208L10.813,-16.208L10.813,-5.396L0,-5.396ZM10.813,-21.604L27.021,-21.604L27.021,-37.833L10.813,-37.833L10.813,-21.604Z" style="fill:rgb(236,120,184);fill-rule:nonzero;"/>
                </g>
            </g>
        </g>
    </g>
    <g transform="matrix(1,0,0,1,139.557,160.097)">
        <g>
            <g>
                <g>
                    <path d="M0,-5.396L0,-43.229L37.833,-43.229L37.833,-37.833L10.813,-37.833L10.813,-27.021L32.417,-27.021L32.417,-21.604L10.813,-21.604L10.813,-10.812L37.833,-10.812L37.833,-5.396L0,-5.396Z" style="fill:rgb(236,120,184);fill-rule:nonzero;"/>
                </g>
            </g>
        </g>
    </g>
    <g transform="matrix(1,0,0,1,182.778,160.097)">
        <g>
            <g>
                <g>
                    <path d="M0,-5.396L0,-43.229L32.417,-43.229L32.417,-37.833L37.833,-37.833L37.833,-21.604L27.021,-21.604L27.021,-16.208L32.417,-16.208L32.417,-10.812L37.833,-10.812L37.833,-5.396L21.604,-5.396L21.604,-10.812L16.208,-10.812L16.208,-16.208L10.813,-16.208L10.813,-5.396L0,-5.396ZM10.813,-21.604L21.604,-21.604L21.604,-27.021L27.021,-27.021L27.021,-37.833L10.813,-37.833L10.813,-21.604Z" style="fill:rgb(236,120,184);fill-rule:nonzero;"/>
                </g>
            </g>
        </g>
    </g>
    <g transform="matrix(1,0,0,1,9.89439,220.367)">
        <g>
            <g>
                <g>
                    <path d="M16.208,-5.396L16.208,-37.833L5.396,-37.833L5.396,-43.229L37.833,-43.229L37.833,-37.833L27.021,-37.833L27.021,-5.396L16.208,-5.396Z" style="fill:rgb(236,120,184);fill-rule:nonzero;"/>
                </g>
            </g>
        </g>
    </g>
    <g transform="matrix(1,0,0,1,53.1152,220.367)">
        <g>
            <g>
                <g>
                    <path d="M0,-5.396L0,-43.229L37.833,-43.229L37.833,-37.833L10.813,-37.833L10.813,-27.021L32.417,-27.021L32.417,-21.604L10.813,-21.604L10.813,-10.812L37.833,-10.812L37.833,-5.396L0,-5.396Z" style="fill:rgb(236,120,184);fill-rule:nonzero;"/>
                </g>
            </g>
        </g>
    </g>
    <g transform="matrix(1,0,0,1,96.336,220.367)">
        <g>
            <g>
                <g>
                    <path d="M0,-5.396L0,-43.229L10.813,-43.229L10.813,-37.833L16.208,-37.833L16.208,-32.417L21.604,-32.417L21.604,-37.833L27.021,-37.833L27.021,-43.229L37.833,-43.229L37.833,-5.396L27.021,-5.396L27.021,-27.021L21.604,-27.021L21.604,-16.208L16.208,-16.208L16.208,-27.021L10.813,-27.021L10.813,-5.396L0,-5.396Z" style="fill:rgb(236,120,184);fill-rule:nonzero;"/>
                </g>
            </g>
        </g>
    </g>
    <g transform="matrix(1,0,0,1,139.557,220.367)">
        <g>
            <g>
                <g>
                    <path d="M0,-5.396L0,-43.229L32.417,-43.229L32.417,-37.833L37.833,-37.833L37.833,-21.604L32.417,-21.604L32.417,-16.208L10.813,-16.208L10.813,-5.396L0,-5.396ZM10.813,-21.604L27.021,-21.604L27.021,-37.833L10.813,-37.833L10.813,-21.604Z" style="fill:rgb(236,120,184);fill-rule:nonzero;"/>
                </g>
            </g>
        </g>
    </g>
    <g transform="matrix(1,0,0,1,182.778,220.367)">
        <g>
            <g>
                <g>
                    <path d="M5.396,-5.396L5.396,-43.229L16.208,-43.229L16.208,-10.812L37.833,-10.812L37.833,-5.396L5.396,-5.396Z" style="fill:rgb(236,120,184);fill-rule:nonzero;"/>
                </g>
            </g>
        </g>
    </g>
    <g transform="matrix(1,0,0,1,225.998,220.367)">
        <g>
            <g>
                <g>
                    <path d="M0,-5.396L0,-32.417L5.396,-32.417L5.396,-37.833L10.813,-37.833L10.813,-43.229L27.021,-43.229L27.021,-37.833L32.417,-37.833L32.417,-32.417L37.833,-32.417L37.833,-5.396L27.021,-5.396L27.021,-16.208L10.813,-16.208L10.813,-5.396L0,-5.396ZM10.813,-21.604L27.021,-21.604L27.021,-32.417L21.604,-32.417L21.604,-37.833L16.208,-37.833L16.208,-32.417L10.813,-32.417L10.813,-21.604Z" style="fill:rgb(236,120,184);fill-rule:nonzero;"/>
                </g>
            </g>
        </g>
    </g>
    <g transform="matrix(1,0,0,1,269.219,220.367)">
        <g>
            <g>
                <g>
                    <path d="M16.208,-5.396L16.208,-37.833L5.396,-37.833L5.396,-43.229L37.833,-43.229L37.833,-37.833L27.021,-37.833L27.021,-5.396L16.208,-5.396Z" style="fill:rgb(236,120,184);fill-rule:nonzero;"/>
                </g>
            </g>
        </g>
    </g>
    <g transform="matrix(1,0,0,1,312.44,220.367)">
        <g>
            <g>
                <g>
                    <path d="M0,-5.396L0,-43.229L37.833,-43.229L37.833,-37.833L10.813,-37.833L10.813,-27.021L32.417,-27.021L32.417,-21.604L10.813,-21.604L10.813,-10.812L37.833,-10.812L37.833,-5.396L0,-5.396Z" style="fill:rgb(236,120,184);fill-rule:nonzero;"/>
                </g>
            </g>
        </g>
    </g>
    <g transform="matrix(1,0,0,1,355.661,220.367)">
        <g>
            <g>
                <g>
                    <path d="M5.396,-5.396L5.396,-10.812L0,-10.812L0,-16.208L10.813,-16.208L10.813,-10.812L27.021,-10.812L27.021,-21.604L5.396,-21.604L5.396,-27.021L0,-27.021L0,-37.833L5.396,-37.833L5.396,-43.229L32.417,-43.229L32.417,-37.833L37.833,-37.833L37.833,-32.417L27.021,-32.417L27.021,-37.833L10.813,-37.833L10.813,-27.021L32.417,-27.021L32.417,-21.604L37.833,-21.604L37.833,-10.812L32.417,-10.812L32.417,-5.396L5.396,-5.396Z" style="fill:rgb(236,120,184);fill-rule:nonzero;"/>
                </g>
            </g>
        </g>
    </g>
</svg>
